<svg width="144" height="32" viewBox="0 0 144 32" fill="none" xmlns="http://www.w3.org/2000/svg">
<path d="M45.1312 15.758C45.8015 15.1283 46.228 14.2345 46.228 13.2392C46.228 12.2439 45.8015 11.3501 45.1312 10.7205C44.5218 10.1517 43.7093 9.8064 42.4499 9.8064H37.9609V22.1158H40.3374V16.672H41.1905L45.578 22.1158H48.503L43.8921 16.4689C44.3999 16.3064 44.8062 16.0627 45.1312 15.758ZM43.5062 14.1939C43.303 14.4173 42.9984 14.5595 42.3077 14.5595H40.3374V11.9189H42.3077C42.9984 11.9189 43.303 12.0814 43.5062 12.3048C43.7093 12.5283 43.8515 12.8939 43.8515 13.2595C43.8515 13.6048 43.7093 13.9501 43.5062 14.1939Z" fill="#4C4C4D"/>
<path d="M52.504 16.5705H56.2821V14.458H52.504V11.9189H57.5009V9.8064H50.1274V22.1158H57.6837V20.0033H52.504V16.5705Z" fill="#4C4C4D"/>
<path d="M60.7919 22.1158H63.1685V16.5705H66.9466V14.458H63.1685V11.9189H68.1653V9.8064H60.7919V22.1158Z" fill="#4C4C4D"/>
<path d="M73.0404 9.8064H70.6638V22.1158H73.0404V9.8064Z" fill="#4C4C4D"/>
<path d="M84.9637 17.8298L78.098 9.8064H76.4324V22.1158H78.809V14.0923L85.6746 22.1158H87.3402V9.8064H84.9637V17.8298Z" fill="#4C4C4D"/>
<path d="M93.3327 16.5705H97.1108V14.458H93.3327V11.9189H98.3296V9.8064H90.9561V22.1158H98.5124V20.0033H93.3327V16.5705Z" fill="#4C4C4D"/>
<path d="M108.791 15.758C109.461 15.1283 109.888 14.2345 109.888 13.2392C109.888 12.2439 109.461 11.3501 108.791 10.7205C108.182 10.1517 107.369 9.8064 106.11 9.8064H101.621V22.1158H103.997V16.672H104.85L109.217 22.1158H112.163L107.552 16.4689C108.06 16.3064 108.446 16.0627 108.791 15.758ZM107.146 14.1939C106.942 14.4173 106.638 14.5595 105.947 14.5595H103.977V11.9189H105.947C106.638 11.9189 106.942 12.0814 107.146 12.3048C107.349 12.5283 107.491 12.8939 107.491 13.2595C107.511 13.6048 107.369 13.9501 107.146 14.1939Z" fill="#4C4C4D"/>
<path d="M117.099 14.133L114.377 9.8064H111.676L115.901 16.5501V22.1158H118.277V16.5501L122.482 9.8064H119.78L117.099 14.133Z" fill="#4C4C4D"/>
<path d="M130.627 16.8556C131.48 15.7384 131.968 14.7837 131.968 13.2603C131.968 11.0056 130.058 9.38062 127.946 9.38062H127.865C125.752 9.38062 123.985 10.9447 123.843 13.2197H126.219C126.219 12.3462 126.991 11.5337 127.905 11.5337C128.84 11.5337 129.591 12.3462 129.591 13.2197C129.591 13.8697 129.51 14.54 128.616 15.6775L123.335 22.1166H132.415V19.9634H128.047L130.627 16.8556Z" fill="#4C4C4D"/>
<path d="M138.568 9.38062C136.171 9.38062 134.201 11.3509 134.201 13.7884C134.201 16.3072 136.171 18.115 138.507 18.115H138.67L136.334 22.1166H138.954L141.859 17.14C142.509 16.0228 143.077 14.9259 143.077 13.6869C143.077 11.0462 140.863 9.38062 138.568 9.38062ZM138.629 15.9822C137.41 15.9822 136.415 14.9869 136.415 13.7681C136.415 12.5494 137.41 11.5541 138.629 11.5541C139.848 11.5541 140.843 12.5494 140.843 13.7681C140.843 14.9869 139.848 15.9822 138.629 15.9822Z" fill="#4C4C4D"/>
<path d="M22.8043 9.55219C21.9372 9.55219 21.1731 9.78733 20.5265 10.1988C19.7917 7.65647 17.5727 6.21631 14.2074 6.21631H8.8876V8.06795H14.3543C17.1465 8.06795 18.7924 9.58159 18.7924 12.2268C18.7924 14.872 17.1465 16.3856 14.3543 16.3856H14.3103L14.6189 15.9301C15.2949 14.9161 15.9121 13.9168 15.9121 12.9763C15.9121 11.0364 14.6776 9.56689 12.2676 9.56689C10.1808 9.56689 8.60839 11.1687 8.60839 13.0497H10.5923C10.5923 12.1092 11.2095 11.4185 12.2676 11.4185C13.3991 11.4185 13.9282 12.0798 13.9282 13.035C13.9282 13.7698 13.4579 14.5046 12.9436 15.2541L12.15 16.4003H8.8876V18.252H10.8862L7.40335 23.3513H15.7504V21.485H10.8274L13.0464 18.2373H14.2074C14.3984 18.2373 14.5895 18.2373 14.7805 18.2226L20.6146 25.8349H23.1276L21.2025 23.3366L24.8617 17.9874C25.8022 16.6648 26.9043 15.2247 26.9043 13.5641C26.8896 11.3744 25.2144 9.55219 22.8043 9.55219ZM19.968 21.7495L16.9555 17.8552C18.0576 17.5025 18.954 16.9147 19.6007 16.1064C20.3207 17.0175 21.4523 17.5907 22.819 17.5907C22.8337 17.5907 22.9072 17.5907 22.9218 17.5907L19.968 21.7495ZM22.8043 15.7537C21.5405 15.7537 20.7175 14.7985 20.7175 13.5788C20.7175 13.4759 20.7175 13.3877 20.7322 13.2849C20.7322 13.2702 20.7322 13.2555 20.7322 13.2261C20.8792 12.1827 21.658 11.4038 22.7896 11.4038C24.0534 11.4038 24.8764 12.359 24.8764 13.5788C24.891 14.7985 24.0681 15.7537 22.8043 15.7537Z" fill="#4C4C4D"/>
<path d="M16.5437 0C7.93214 0 0.922363 7.00977 0.922363 15.6214C0.922363 24.2329 7.93214 31.2427 16.5437 31.2427C25.1553 31.2427 32.1651 24.2329 32.1651 15.6067C32.1651 6.99508 25.1553 0 16.5437 0ZM16.5437 29.3911C8.94613 29.3911 2.774 23.219 2.774 15.6214C2.774 8.02377 8.94613 1.85164 16.5437 1.85164C24.1413 1.85164 30.3134 8.02377 30.3134 15.6214C30.3134 23.2043 24.1413 29.3911 16.5437 29.3911Z" fill="#4C4C4D"/>
</svg>
