<svg width="204" height="18" viewBox="0 0 204 18" fill="none" xmlns="http://www.w3.org/2000/svg">
<g clip-path="url(#clip0_1_1125)">
<path d="M10.9289 9.55645C9.84896 10.4575 8.38088 10.7805 6.71031 10.7805H4.71912V16.7985H0.922363V0.512451H6.71031C8.38088 0.512451 9.84896 0.835451 10.9289 1.73645C12.0089 2.63745 12.6164 3.87845 12.6164 5.62945C12.6164 7.39745 12.0089 8.63845 10.9289 9.55645ZM7.99277 3.91245C7.52028 3.58945 6.9803 3.47045 6.17033 3.47045H4.70225V7.83945H6.17033C6.99718 7.83945 7.53716 7.72045 7.99277 7.39745C8.43151 7.07445 8.769 6.47945 8.769 5.64645C8.769 4.81345 8.44838 4.25245 7.99277 3.91245Z" fill="#4C4C4D"/>
<path d="M32.5789 0.495361C28.0397 0.495361 24.5804 3.57236 24.5804 8.68936C24.5804 13.8064 28.0397 16.8494 32.5789 16.8494C37.1181 16.8494 40.5774 13.8064 40.5774 8.68936C40.5943 3.57236 37.1181 0.495361 32.5789 0.495361ZM32.5789 13.5344C30.0308 13.5344 28.2084 11.7154 28.2084 8.68936C28.2084 5.66336 30.0308 3.65736 32.5789 3.65736C35.1269 3.65736 36.9494 5.66336 36.9494 8.68936C36.9494 11.7154 35.1269 13.5344 32.5789 13.5344Z" fill="#4C4C4D"/>
<path d="M62.5986 9.55645C61.5186 10.4575 60.0505 10.7805 58.38 10.7805H56.3888V16.7985H52.592V0.512451H58.38C60.0505 0.512451 61.5186 0.835451 62.5986 1.73645C63.6786 2.63745 64.286 3.87845 64.286 5.62945C64.286 7.39745 63.6786 8.63845 62.5986 9.55645ZM59.6624 3.91245C59.1899 3.58945 58.65 3.47045 57.84 3.47045H56.3719V7.83945H57.84C58.6668 7.83945 59.2068 7.72045 59.6624 7.39745C60.1012 7.07445 60.4387 6.47945 60.4387 5.64645C60.4387 4.81345 60.118 4.25245 59.6624 3.91245Z" fill="#4C4C4D"/>
<path d="M85.8516 15.4894C84.721 16.3904 83.253 16.7984 81.5655 16.7984C79.2706 16.7984 77.2288 15.5914 75.9463 14.4014L77.7856 11.6814C78.9331 12.8884 80.7049 13.6874 81.9199 13.6874C83.118 13.6874 84.0292 13.1094 84.0292 12.0554C84.0292 10.9674 82.8648 10.5594 82.173 10.3044C81.4811 10.0494 80.2999 9.6414 79.7599 9.4034C79.3718 9.2164 78.5618 8.9104 77.8869 8.2474C77.195 7.6014 76.655 6.6834 76.655 5.1704C76.655 3.6404 77.3806 2.4504 78.3087 1.6854C79.2031 0.9204 80.6543 0.4104 82.4767 0.4104C84.316 0.4104 86.4254 1.2944 87.5053 2.3654L85.9191 4.9834C85.0079 4.0654 83.5736 3.3684 82.3924 3.3684C81.1943 3.3684 80.3337 3.8274 80.3337 4.7964C80.3337 5.7654 81.228 6.1394 81.9367 6.4114C82.6286 6.6834 83.7929 7.1084 84.2992 7.3124C84.7379 7.4824 85.7841 7.8904 86.4929 8.6044C87.151 9.2674 87.7247 10.2364 87.7247 11.6814C87.7078 13.2114 86.9991 14.5884 85.8516 15.4894Z" fill="#4C4C4D"/>
<path d="M112.868 9.84525C112.868 12.1232 112.48 13.6872 111.332 14.9282C110.218 16.1522 108.48 16.8492 106.152 16.8492C103.806 16.8492 102.085 16.1522 100.937 14.9282C99.8237 13.6872 99.4187 12.1232 99.4187 9.84525V0.427246H103.215V9.84525C103.215 10.9842 103.3 11.8852 103.84 12.5312C104.346 13.1432 105.089 13.5342 106.135 13.5342C107.181 13.5342 107.923 13.1432 108.43 12.5312C108.97 11.8682 109.054 10.9842 109.054 9.84525V0.427246H112.851V9.84525H112.868Z" fill="#4C4C4D"/>
<path d="M139.766 14.1123C138.972 14.8263 137.083 16.8323 132.746 16.8323C128.375 16.8323 124.528 13.9253 124.528 8.62134C124.528 3.31734 128.375 0.444336 132.78 0.444336C136.964 0.444336 138.77 2.65434 139.276 3.21534L136.829 5.35734C136.171 4.62634 134.923 3.53834 132.78 3.53834C130.248 3.53834 128.274 5.40834 128.274 8.63834C128.274 11.8683 130.282 13.7383 132.847 13.7383C135.412 13.7383 136.138 12.7183 136.138 12.7183V10.3553H132.813V7.51634H139.749V14.1123H139.766Z" fill="#4C4C4D"/>
<path d="M167.558 16.8154H163.44L162.293 13.5344H156.522L155.374 16.8154H151.443L157.534 0.495361H161.466L167.558 16.8154ZM161.416 10.5594L159.407 4.71136L157.399 10.5594H161.416Z" fill="#4C4C4D"/>
<path d="M192.026 16.8154H187.622L184.23 10.5765H183.032V16.8154H179.235V0.512451H185.04C186.845 0.512451 188.246 0.886451 189.309 1.66845C190.389 2.46745 191.098 3.77645 191.098 5.39145C191.098 8.48545 189.123 9.69245 187.942 10.0665L192.026 16.8154ZM186.44 3.89545C185.968 3.53845 185.36 3.47045 184.5 3.47045H182.998V7.65245H184.5C185.36 7.65245 185.968 7.55045 186.44 7.21045C186.93 6.85345 187.267 6.41145 187.267 5.56145C187.267 4.72845 186.947 4.25245 186.44 3.89545Z" fill="#4C4C4D"/>
<path d="M201.003 16.8324C202.615 16.8324 203.922 15.5157 203.922 13.8914C203.922 12.2672 202.615 10.9504 201.003 10.9504C199.391 10.9504 198.084 12.2672 198.084 13.8914C198.084 15.5157 199.391 16.8324 201.003 16.8324Z" fill="#4C4C4D"/>
</g>
<defs>
<clipPath id="clip0_1_1125">
<rect width="203" height="17" fill="white" transform="translate(0.922363 0.121338)"/>
</clipPath>
</defs>
</svg>
