<svg width="98" height="26" viewBox="0 0 98 26" fill="none" xmlns="http://www.w3.org/2000/svg">
<path fill-rule="evenodd" clip-rule="evenodd" d="M54.0094 15.0129V14.4708H61.498V14.6303V14.8694V15.0289H59.7174V24.8025H59.3833L59.3514 24.6749C59.145 23.7023 58.1431 23.3675 57.6346 23.3675H57.5548H57.4438C56.6011 23.3982 55.8473 23.7545 55.0681 24.1227L54.9794 24.1647C54.8999 24.1966 54.8241 24.2285 54.7487 24.2604C54.6732 24.2922 54.5978 24.3241 54.5183 24.356C53.6913 24.7546 52.8012 25.1054 51.7199 25.1054C45.9325 25.1054 41.7034 20.099 41.7034 13.0359C41.7034 4.37837 47.3635 0.185113 51.4816 0.185113C52.3877 0.185113 52.976 0.360496 53.7708 0.615597L54.1048 0.71126C54.1806 0.73665 54.2601 0.763654 54.3422 0.79176L54.3432 0.792087C54.519 0.852144 54.7101 0.917234 54.9155 0.982307L55.2337 1.06203C55.4564 1.10986 55.7425 1.15769 56.0763 1.17363C56.76 1.18958 57.5548 1.01419 57.8888 0.217001L57.9364 0.121338H58.2066H58.2864V8.89046H58.2066H57.9207L57.8888 8.76293C56.426 2.92746 54.6294 0.759094 51.4975 0.74315H51.4656C48.8899 0.74315 48.0313 2.40131 47.5702 3.29417C46.346 5.6698 46.0917 11.0907 46.0917 12.7489C46.0917 17.3885 46.5049 19.3815 47.2841 21.4542C48.0792 23.5748 49.4623 24.5952 51.5451 24.5633C53.469 24.5314 55.9333 23.7023 55.9333 19.9874V15.0129H54.0094ZM97.4613 16.0334V15.8899H97.9224V24.659H80.7355V24.085H82.8342V1.38091H80.4971H78.5257V18.5046C78.5732 21.5021 76.5858 25.1213 72.2454 25.1213C65.7746 25.1213 63.5645 21.7412 63.5645 17.3726V1.38091H61.3388V1.06203V0.822877H69.6856V1.06203V1.38091H67.5393V19.3656C67.5393 19.5569 67.6822 24.3082 72.3886 24.4836C73.6763 24.5314 75.0914 24.0212 76.0929 23.0646C76.9199 22.2833 77.8739 20.7846 77.9214 18.3452V1.38091H76.0773V1.06203V0.822877H80.4971H80.9741H81.133H96.9528V8.85859H96.5712L96.5393 8.73103C95.0681 1.26287 91.6623 1.33311 88.1725 1.40508C88.0412 1.40778 87.9102 1.41049 87.7789 1.4128C87.5243 1.42874 87.1112 1.42874 86.8565 1.42874V12.2068H87.0317H87.051C88.9713 12.2069 91.31 12.2069 91.8172 7.53526L91.8332 7.39176H92.2148V17.6755H91.8332L91.8172 17.532C91.4469 12.7362 89.2654 12.7589 87.3352 12.7791L87.2983 12.7795C87.2518 12.78 87.2052 12.7804 87.1587 12.7808H86.8409V24.1009H87.0317C87.1009 24.1009 87.183 24.1019 87.2764 24.103C88.6206 24.1184 92.3471 24.1613 94.9334 21.821C96.5073 20.4019 97.35 18.4568 97.4613 16.0334ZM29.4298 0.248901C24.5487 0.248901 19.1908 5.14366 19.1908 12.6214C19.1908 20.099 24.7236 25.0576 29.4298 25.0576C34.1359 25.0576 39.6688 20.099 39.6688 12.6214C39.6529 5.14366 34.3109 0.248901 29.4298 0.248901ZM35.1217 11.6966V11.8561V11.9677V12.0633V12.2068V12.2547V12.3982V12.43V12.5895V12.717C35.1217 14.1041 34.9944 19.4453 33.5953 22.108C32.8004 23.6545 31.2581 24.4677 29.398 24.4677C27.5378 24.4677 25.9797 23.6545 25.2006 22.108C23.8015 19.4453 23.6902 14.1041 23.6902 12.717V12.5895V12.43V12.3982V12.2547V12.2068V12.0633V11.9677V11.8561V11.6966V11.6328C23.7379 9.49636 24.0082 5.49443 25.2006 3.15069C26.1545 1.20553 28.0942 0.790994 29.398 0.790994C30.7176 0.790994 32.6414 1.20553 33.5953 3.15069C34.7876 5.49443 35.0422 9.49636 35.1057 11.6328C35.1217 11.6488 35.1217 11.6807 35.1217 11.6966ZM16.7102 0.822877H21.0824H21.2414V1.36497H19.3017H19.095L12.1153 24.7865H11.9881L3.21183 1.36497H2.98925H0.922363V1.04609V0.822877H8.82423V1.04609V1.36497H7.1548H7.04351L13.3078 18.7757L18.4909 1.36497H16.5512V0.822877H16.7102Z" fill="#4C4C4D"/>
</svg>
