<svg width="101" height="26" viewBox="0 0 101 26" fill="none" xmlns="http://www.w3.org/2000/svg">
<g clip-path="url(#clip0_1_1122)">
<path d="M57.6109 8.27023C57.6109 5.35273 57.6614 2.63643 57.8128 0.121338L50.0895 1.58009V2.28432L50.8466 2.38492C51.4019 2.43522 51.7553 2.63643 51.9572 2.93824C52.1591 3.29035 52.3106 3.79337 52.4115 4.5479C52.5125 6.00665 52.6134 9.32657 52.563 14.558C52.563 19.739 52.5125 23.0087 52.4115 24.2662C55.1879 24.8698 57.3585 25.1213 58.9739 25.1213C62.0026 25.1213 64.3752 24.2662 66.0915 22.5056C67.8078 20.7954 68.7164 18.3809 68.7164 15.4131C68.7164 13.0489 68.0602 11.0871 66.7477 9.52778C65.4352 7.96842 63.7694 7.21389 61.8007 7.21389C60.4882 7.21389 59.1253 7.56601 57.6109 8.27023ZM57.7623 23.7632C57.6614 22.1535 57.5604 17.3246 57.5604 9.42717C58.0147 9.27627 58.6205 9.17566 59.3777 9.17566C60.5892 9.17566 61.5483 9.77929 62.255 11.0368C62.9617 12.2944 63.3151 13.8034 63.3151 15.7149C63.3151 18.0791 62.9113 19.9906 62.1036 21.6002C61.2959 23.1596 60.2863 23.9644 59.0243 23.9644C58.6205 23.8638 58.2167 23.8135 57.7623 23.7632ZM21.1142 0.624356H0.922363V1.63039L1.98243 1.731C2.79011 1.8819 3.34538 2.18371 3.69874 2.63643C4.0521 3.13945 4.25401 3.94428 4.30449 5.05092C4.70833 10.4835 4.70833 15.564 4.30449 20.2421C4.20353 21.3487 4.00162 22.1535 3.69874 22.6565C3.34538 23.1596 2.79011 23.4614 1.98243 23.562L0.922363 23.7129V24.7189H13.9461V23.7129L12.5831 23.6123C11.7755 23.5117 11.2202 23.1596 10.8668 22.7069C10.5135 22.2038 10.3116 21.399 10.2611 20.2924C10.1096 18.2803 10.0087 15.9664 10.0087 13.401L12.7346 13.4513C14.1985 13.5016 15.2081 14.6083 15.7129 16.8215H16.7225V8.62234H15.7129C15.2081 10.7853 14.249 11.892 12.7346 11.9423L10.0087 11.9926C10.0087 7.4654 10.1096 4.24609 10.2611 2.28432H14.249C17.0758 2.28432 18.994 4.09518 20.1046 7.71691L21.3161 7.3648L21.1142 0.624356ZM18.7416 16.1173C18.7416 18.733 19.4988 20.896 20.9627 22.6062C22.4267 24.3165 24.5973 25.1213 27.3232 25.1213C30.0491 25.1213 32.2702 24.2662 33.8855 22.5056C35.5009 20.7954 36.2581 18.6324 36.2581 16.0167C36.2581 13.401 35.5009 11.238 34.0369 9.52778C32.573 7.81751 30.4024 7.01269 27.6765 7.01269C24.9506 7.01269 22.7295 7.86782 21.1142 9.62838C19.4988 11.3386 18.7416 13.5016 18.7416 16.1173ZM29.9986 10.3829C30.6043 11.8417 30.8567 13.7531 30.8567 16.067C30.8567 21.399 29.7462 24.0147 27.5756 24.0147C26.465 24.0147 25.6069 23.2602 25.0011 21.7511C24.3954 20.2421 24.143 18.3306 24.143 16.067C24.143 10.7853 25.2535 8.16963 27.4241 8.16963C28.5347 8.11933 29.3928 8.87385 29.9986 10.3829ZM72.6538 22.6062C74.3196 24.2662 76.4398 25.1213 78.9638 25.1213C80.5286 25.1213 81.8916 24.8195 83.1031 24.1656C84.3146 23.562 85.2737 22.8075 85.9299 21.902L85.4251 21.2984C84.3146 22.1535 83.0526 22.5559 81.5887 22.5559C79.5695 22.5559 78.0046 21.902 76.9446 20.5439C75.834 19.1857 75.3292 17.4755 75.4302 15.2622H86.2328C86.2328 12.8477 85.6271 10.8859 84.3651 9.32657C83.1031 7.81751 81.3363 7.06299 79.0647 7.06299C76.2379 7.06299 74.0672 7.96842 72.5024 9.72898C70.9375 11.4895 70.1803 13.6525 70.1803 16.2179C70.1803 18.8336 70.988 20.9463 72.6538 22.6062ZM76.3893 9.98049C76.9446 8.77325 77.6513 8.16963 78.6104 8.16963C80.1248 8.16963 80.882 10.0811 80.882 13.9543L75.5312 14.0549C75.5816 12.5459 75.834 11.1877 76.3893 9.98049ZM99.8118 7.96842C98.4489 7.3648 96.7326 7.01269 94.6629 7.01269C92.5428 7.01269 90.8769 7.56601 89.6149 8.62234C88.353 9.67868 87.6967 10.9865 87.6967 12.5459C87.6967 13.904 88.1006 14.9604 88.8577 15.7149C89.6149 16.4694 90.8264 17.1234 92.3913 17.6767C93.8047 18.1797 94.8143 18.6827 95.3191 19.1354C95.8239 19.6384 96.1268 20.1918 96.1268 20.9463C96.1268 21.6505 95.8744 22.3044 95.3191 22.8075C94.8143 23.3608 94.1076 23.6123 93.199 23.6123C90.9779 23.6123 89.3121 22.0026 88.151 18.7833L87.2929 19.0348L87.4948 24.065C89.3121 24.7692 91.3312 25.1213 93.5523 25.1213C95.8744 25.1213 97.6412 24.6183 98.9537 23.562C100.266 22.5559 100.922 21.0972 100.922 19.2863C100.922 18.0791 100.619 17.073 99.9632 16.3185C99.307 15.564 98.2469 14.9101 96.7326 14.3064C95.0667 13.7028 93.9057 13.1495 93.2999 12.6465C92.6942 12.1435 92.3913 11.5398 92.3913 10.7853C92.3913 10.0308 92.5932 9.42717 93.0476 8.92415C93.5019 8.42114 94.0571 8.21993 94.7639 8.21993C96.783 8.21993 98.2469 9.67868 99.1556 12.5459L100.014 12.2944L99.8118 7.96842ZM51.2505 7.5157C50.5438 7.16359 49.7866 7.01269 48.9284 7.01269C48.0703 7.01269 47.2121 7.3648 46.253 8.06902C45.2939 8.77325 44.5872 9.72898 44.0319 11.0368L44.0824 7.01269L36.4095 8.52174V9.22597L37.1667 9.27627C38.1258 9.37687 38.6811 10.1314 38.782 11.4895C39.0849 14.6083 39.0849 17.9282 38.782 21.4493C38.6811 22.8075 38.1258 23.5117 37.1667 23.6626L36.4095 23.7632V24.7189H47.1112V23.7632L45.7482 23.6626C44.7891 23.562 44.2338 22.8075 44.1329 21.4493C43.83 18.5318 43.7795 15.4131 44.0319 12.1938C44.3348 11.6908 44.991 11.3889 46.0006 11.2883C47.0102 11.1877 48.1712 11.4895 49.3827 12.1938L51.2505 7.5157Z" fill="#4C4C4D"/>
</g>
<defs>
<clipPath id="clip0_1_1122">
<rect width="100" height="25" fill="white" transform="translate(0.922363 0.121338)"/>
</clipPath>
</defs>
</svg>
